<?xml version="1.0" encoding="utf-8"?>
<!-- Uploaded to: SVG Repo, www.svgrepo.com, Generator: SVG Repo Mixer Tools -->
<svg width="800px" height="800px" viewBox="0 0 32 32" fill="none" xmlns="http://www.w3.org/2000/svg">
<g clip-path="url(#clip0_901_2691)">
<path d="M31 8V30C31 31 30 31 30 31H5C3 31 3 29 3 29V27C5 27 5 25 5 25V8C5 7 6 7 6 7H30C31 7 31 8 31 8Z" fill="#FFC44D"/>
<path d="M30 7H6C6 7 5 7 5 8V25C5 25 5 27 3 27C1 27 1 25 1 25V2C1 2 1 1 2 1H8L10 3H26C26 3 30 3 30 7Z" fill="#668077"/>
<path d="M3 31H30C30 31 31 31 31 30V8C31 8 31 7 30 7H6C6 7 5 7 5 8V25C5 25 5 27 3 27C1 27 1 25 1 25V2C1 2 1 1 2 1H8L10 3H26" stroke="#000000" stroke-width="2" stroke-linecap="round" stroke-linejoin="round"/>
</g>
<defs>
<clipPath id="clip0_901_2691">
<rect width="32" height="32" fill="white"/>
</clipPath>
</defs>
</svg>